<?xml version="1.0" encoding="UTF-8" standalone="no"?>
<!-- Created with Inkscape (http://www.inkscape.org/) -->

<svg
   xmlns:dc="http://purl.org/dc/elements/1.1/"
   xmlns:cc="http://creativecommons.org/ns#"
   xmlns:rdf="http://www.w3.org/1999/02/22-rdf-syntax-ns#"
   xmlns:svg="http://www.w3.org/2000/svg"
   xmlns="http://www.w3.org/2000/svg"
   xmlns:sodipodi="http://sodipodi.sourceforge.net/DTD/sodipodi-0.dtd"
   xmlns:inkscape="http://www.inkscape.org/namespaces/inkscape"
   width="410.91302mm"
   height="119.36163mm"
   viewBox="0 0 410.91302 119.36162"
   version="1.1"
   id="svg8"
   inkscape:version="0.92.0 r15299"
   sodipodi:docname="ASK_Lambda.svg">
  <defs
     id="defs2">
    <marker
       inkscape:isstock="true"
       style="overflow:visible"
       id="marker5016"
       refX="0"
       refY="0"
       orient="auto"
       inkscape:stockid="Arrow2Mstart">
      <path
         transform="scale(0.6)"
         d="M 8.7185878,4.0337352 -2.2072895,0.01601326 8.7185884,-4.0017078 c -1.7454984,2.3720609 -1.7354408,5.6174519 -6e-7,8.035443 z"
         style="fill:#000000;fill-opacity:1;fill-rule:evenodd;stroke:#000000;stroke-width:0.625;stroke-linejoin:round;stroke-opacity:1"
         id="path5014"
         inkscape:connector-curvature="0" />
    </marker>
    <marker
       inkscape:stockid="Arrow2Mstart"
       orient="auto"
       refY="0"
       refX="0"
       id="Arrow2Mstart"
       style="overflow:visible"
       inkscape:isstock="true"
       inkscape:collect="always">
      <path
         id="path4558"
         style="fill:#000000;fill-opacity:1;fill-rule:evenodd;stroke:#000000;stroke-width:0.625;stroke-linejoin:round;stroke-opacity:1"
         d="M 8.7185878,4.0337352 -2.2072895,0.01601326 8.7185884,-4.0017078 c -1.7454984,2.3720609 -1.7354408,5.6174519 -6e-7,8.035443 z"
         transform="scale(0.6)"
         inkscape:connector-curvature="0" />
    </marker>
    <marker
       inkscape:stockid="Arrow2Lstart"
       orient="auto"
       refY="0"
       refX="0"
       id="Arrow2Lstart"
       style="overflow:visible"
       inkscape:isstock="true">
      <path
         id="path4552"
         style="fill:#000000;fill-opacity:1;fill-rule:evenodd;stroke:#000000;stroke-width:0.625;stroke-linejoin:round;stroke-opacity:1"
         d="M 8.7185878,4.0337352 -2.2072895,0.01601326 8.7185884,-4.0017078 c -1.7454984,2.3720609 -1.7354408,5.6174519 -6e-7,8.035443 z"
         transform="matrix(1.1,0,0,1.1,1.1,0)"
         inkscape:connector-curvature="0" />
    </marker>
    <marker
       inkscape:stockid="Arrow1Lstart"
       orient="auto"
       refY="0"
       refX="0"
       id="Arrow1Lstart"
       style="overflow:visible"
       inkscape:isstock="true">
      <path
         id="path4534"
         d="M 0,0 5,-5 -12.5,0 5,5 Z"
         style="fill:#000000;fill-opacity:1;fill-rule:evenodd;stroke:#000000;stroke-width:1.00000003pt;stroke-opacity:1"
         transform="matrix(0.8,0,0,0.8,10,0)"
         inkscape:connector-curvature="0" />
    </marker>
  </defs>
  <sodipodi:namedview
     id="base"
     pagecolor="#ffffff"
     bordercolor="#666666"
     borderopacity="1.0"
     inkscape:pageopacity="0.0"
     inkscape:pageshadow="2"
     inkscape:zoom="0.49497474"
     inkscape:cx="617.28388"
     inkscape:cy="409.91258"
     inkscape:document-units="mm"
     inkscape:current-layer="text5502"
     showgrid="false"
     inkscape:snap-global="false"
     fit-margin-top="15"
     fit-margin-left="15"
     fit-margin-right="15"
     fit-margin-bottom="15"
     inkscape:window-width="1283"
     inkscape:window-height="655"
     inkscape:window-x="325"
     inkscape:window-y="357"
     inkscape:window-maximized="1" />
  <metadata
     id="metadata5">
    <rdf:RDF>
      <cc:Work
         rdf:about="">
        <dc:format>image/svg+xml</dc:format>
        <dc:type
           rdf:resource="http://purl.org/dc/dcmitype/StillImage" />
        <dc:title></dc:title>
      </cc:Work>
    </rdf:RDF>
  </metadata>
  <g
     inkscape:label="レイヤー 1"
     inkscape:groupmode="layer"
     id="layer1"
     transform="translate(472.0783,14.513313)">
    <g
       id="g5265"
       transform="translate(-30.659454,-5.2763238)">
      <g
         transform="matrix(0.86609595,0,0,0.86609595,-180.59921,91.31984)"
         id="g4530">
        <path
           style="fill:#0068a8;fill-opacity:1;stroke:none;stroke-width:1;stroke-miterlimit:4;stroke-dasharray:0.99999997, 1.99999993;stroke-dashoffset:0;stroke-opacity:0.50196078"
           d="m -235.70105,-85.195474 a 28.865107,28.865107 0 0 0 -28.86491,28.864903 28.865107,28.865107 0 0 0 28.86491,28.865421 28.865107,28.865107 0 0 0 25.58708,-15.530834 28.865107,28.865107 0 0 1 -5.03742,6.917923 l -4.80383,-4.650877 a 22.18337,22.18337 0 0 1 -15.74583,6.582026 22.18337,22.18337 0 0 1 -22.18312,-22.183659 22.18337,22.18337 0 0 1 22.18312,-22.183142 22.18337,22.18337 0 0 1 15.77321,6.597015 22.18337,22.18337 0 0 0 -0.0248,-0.02739 l 4.78835,-4.63641 a 28.865107,28.865107 0 0 0 -20.53674,-8.614976 z m 20.75688,8.851654 a 28.865107,28.865107 0 0 1 8.09925,19.824631 28.865107,28.865107 0 0 0 -8.09925,-19.824631 z m -3.79408,5.752621 a 22.18337,22.18337 0 0 1 0.29507,0.335896 22.18337,22.18337 0 0 0 -0.29507,-0.335896 z m 1.30224,1.713074 a 22.18337,22.18337 0 0 1 0.30128,0.421163 22.18337,22.18337 0 0 0 -0.30128,-0.421163 z m 1.12758,1.827278 a 22.18337,22.18337 0 0 1 0.29611,0.515215 22.18337,22.18337 0 0 0 -0.29611,-0.515215 z m 0.94207,1.919264 a 22.18337,22.18337 0 0 1 0.27853,0.622183 22.18337,22.18337 0 0 0 -0.27853,-0.622183 z m 0.74465,1.976622 a 22.18337,22.18337 0 0 1 0.25115,0.756542 22.18337,22.18337 0 0 0 -0.25115,-0.756542 z m 0.55966,2.065507 a 22.18337,22.18337 0 0 1 0.19224,0.85783 22.18337,22.18337 0 0 0 -0.19224,-0.85783 z m 0.3545,2.080493 a 22.18337,22.18337 0 0 1 0.12195,1.005107 22.18337,22.18337 0 0 0 -0.12195,-1.005107 z m 6.87193,2.67839 a 28.865107,28.865107 0 0 1 -0.0847,2.145089 28.865107,28.865107 0 0 0 0.0847,-2.145089 z m -0.22583,3.307292 a 28.865107,28.865107 0 0 1 -0.22427,1.732193 28.865107,28.865107 0 0 0 0.22427,-1.732193 z m -0.41754,2.594673 a 28.865107,28.865107 0 0 1 -0.45941,1.97249 28.865107,28.865107 0 0 0 0.45941,-1.97249 z m -0.64596,2.533179 a 28.865107,28.865107 0 0 1 -0.74517,2.187464 28.865107,28.865107 0 0 0 0.74517,-2.187464 z m -0.89503,2.522326 a 28.865107,28.865107 0 0 1 -1.05627,2.311488 28.865107,28.865107 0 0 0 1.05627,-2.311488 z"
           id="path4522"
           inkscape:connector-curvature="0" />
        <path
           inkscape:connector-curvature="0"
           id="path4525"
           d="m -215.16225,-76.582564 -4.79041,4.638477 a 22.18337,22.18337 0 0 1 6.43527,15.608866 22.18337,22.18337 0 0 1 -6.4399,15.604214 l 4.80589,4.652947 a 28.865107,28.865107 0 0 0 8.31578,-20.257161 28.865107,28.865107 0 0 0 -8.32663,-20.247343 z"
           style="fill:#03c2e0;fill-opacity:1;stroke:none;stroke-width:0.7721948;stroke-miterlimit:4;stroke-dasharray:0.77219479, 1.54438958;stroke-dashoffset:0;stroke-opacity:0.50196078" />
      </g>
      <g
         aria-label="Alexa Skills Kit"
         style="font-style:normal;font-weight:normal;font-size:3.17499995px;line-height:6.61458302px;font-family:sans-serif;letter-spacing:0px;word-spacing:0px;fill:#000000;fill-opacity:1;stroke:none;stroke-width:0.26458332"
         id="text5248">
        <path
           d="m -418.98847,83.184387 h -1.16306 l -0.80477,-2.287543 h -3.54983 l -0.80478,2.287543 h -1.10794 l 2.98759,-8.207595 h 1.45521 z m -2.30408,-3.224609 -1.43867,-4.029384 -1.44418,4.029384 z"
           style="font-size:11.28888893px;stroke-width:0.26458332"
           id="path4578" />
        <path
           d="m -416.77809,83.184387 h -1.03629 v -8.57691 h 1.03629 z"
           style="font-size:11.28888893px;stroke-width:0.26458332"
           id="path4580" />
        <path
           d="m -409.60678,80.213337 h -4.5365 q 0,0.567752 0.17087,0.992187 0.17088,0.418924 0.46854,0.689019 0.28663,0.264584 0.67799,0.396875 0.39688,0.132292 0.87092,0.132292 0.62839,0 1.26228,-0.248047 0.63941,-0.253559 0.90951,-0.496094 h 0.0551 v 1.129992 q -0.52365,0.220486 -1.06936,0.369314 -0.5457,0.148828 -1.14653,0.148828 -1.53237,0 -2.39227,-0.826823 -0.8599,-0.832335 -0.8599,-2.359201 0,-1.51033 0.82132,-2.397787 0.82682,-0.887456 2.17178,-0.887456 1.24575,0 1.91823,0.727604 0.678,0.727604 0.678,2.067057 z m -1.00873,-0.79375 q -0.006,-0.815799 -0.41341,-1.262283 -0.40239,-0.446485 -1.22921,-0.446485 -0.83233,0 -1.32843,0.490582 -0.49058,0.490582 -0.55672,1.218186 z"
           style="font-size:11.28888893px;stroke-width:0.26458332"
           id="path4582" />
        <path
           d="m -402.70557,83.184387 h -1.30638 l -1.74735,-2.364713 -1.75838,2.364713 h -1.20716 l 2.4033,-3.070269 -2.38125,-3.086805 h 1.30638 l 1.73633,2.326128 1.74184,-2.326128 h 1.21267 l -2.41983,3.031684 z"
           style="font-size:11.28888893px;stroke-width:0.26458332"
           id="path4584" />
        <path
           d="m -396.57054,83.184387 h -1.03077 v -0.655946 q -0.13781,0.09371 -0.37483,0.264583 -0.23151,0.165365 -0.452,0.264584 -0.25907,0.126779 -0.59531,0.209461 -0.33624,0.08819 -0.78824,0.08819 -0.83233,0 -1.41111,-0.551215 -0.57877,-0.551216 -0.57877,-1.405599 0,-0.700044 0.29765,-1.129992 0.30317,-0.43546 0.8599,-0.683507 0.56224,-0.248046 1.35048,-0.336241 0.78823,-0.08819 1.69223,-0.132292 v -0.159852 q 0,-0.352778 -0.12678,-0.584288 -0.12127,-0.231511 -0.35278,-0.363802 -0.22049,-0.12678 -0.52917,-0.170877 -0.30868,-0.0441 -0.64492,-0.0441 -0.4079,0 -0.9095,0.110243 -0.50161,0.104731 -1.03629,0.30868 h -0.0551 v -1.052821 q 0.30317,-0.08268 0.87643,-0.181901 0.57327,-0.09922 1.12999,-0.09922 0.65044,0 1.12999,0.110243 0.48507,0.104731 0.83785,0.363803 0.34727,0.253559 0.52917,0.655946 0.1819,0.402387 0.1819,0.997699 z m -1.03077,-1.515842 v -1.714279 q -0.47405,0.02756 -1.11897,0.08268 -0.63941,0.05512 -1.01424,0.159852 -0.44648,0.12678 -0.72209,0.396875 -0.27561,0.264584 -0.27561,0.733117 0,0.529166 0.31971,0.799262 0.3197,0.264583 0.97565,0.264583 0.5457,0 0.9977,-0.209462 0.452,-0.214974 0.83785,-0.51263 z"
           style="font-size:11.28888893px;stroke-width:0.26458332"
           id="path4586" />
        <path
           d="m -384.54854,80.841722 q 0,0.479558 -0.22599,0.948091 -0.22049,0.468533 -0.62288,0.79375 -0.44097,0.352777 -1.03077,0.551215 -0.58429,0.198437 -1.41111,0.198437 -0.88746,0 -1.59853,-0.165364 -0.70555,-0.165365 -1.43867,-0.490582 v -1.367014 h 0.0772 q 0.62288,0.518143 1.43867,0.799262 0.8158,0.28112 1.53238,0.28112 1.01424,0 1.57648,-0.380338 0.56775,-0.380339 0.56775,-1.014236 0,-0.545704 -0.2701,-0.804775 -0.26458,-0.259071 -0.81028,-0.402387 -0.41341,-0.110243 -0.89848,-0.181901 -0.47956,-0.07166 -1.01975,-0.181901 -1.09141,-0.23151 -1.62057,-0.788238 -0.52366,-0.562239 -0.52366,-1.46072 0,-1.030773 0.87092,-1.686719 0.87092,-0.661458 2.21038,-0.661458 0.8654,0 1.5875,0.165364 0.72209,0.165365 1.27881,0.407899 v 1.289844 h -0.0772 q -0.46853,-0.396875 -1.23472,-0.655946 -0.76067,-0.264583 -1.55994,-0.264583 -0.87643,0 -1.41111,0.363802 -0.52916,0.363802 -0.52916,0.937066 0,0.51263 0.26458,0.804774 0.26458,0.292144 0.93155,0.446484 0.35278,0.07717 1.00321,0.187414 0.65044,0.110243 1.10243,0.225998 0.91502,0.242535 1.37804,0.733116 0.46302,0.490582 0.46302,1.372526 z"
           style="font-size:11.28888893px;stroke-width:0.26458332"
           id="path4588" />
        <path
           d="m -377.28903,83.184387 h -1.36701 l -2.46945,-2.695443 -0.67248,0.63941 v 2.056033 h -1.03629 v -8.57691 h 1.03629 v 5.501129 l 2.9931,-3.081293 h 1.30638 l -2.86081,2.84427 z"
           style="font-size:11.28888893px;stroke-width:0.26458332"
           id="path4590" />
        <path
           d="m -375.08417,75.99654 h -1.16858 v -1.07487 h 1.16858 z m -0.0662,7.187847 h -1.03628 v -6.157074 h 1.03628 z"
           style="font-size:11.28888893px;stroke-width:0.26458332"
           id="path4592" />
        <path
           d="m -372.08556,83.184387 h -1.03628 v -8.57691 h 1.03628 z"
           style="font-size:11.28888893px;stroke-width:0.26458332"
           id="path4594" />
        <path
           d="m -369.0208,83.184387 h -1.03629 v -8.57691 h 1.03629 z"
           style="font-size:11.28888893px;stroke-width:0.26458332"
           id="path4596" />
        <path
           d="m -362.60466,81.409474 q 0,0.843359 -0.70004,1.38355 -0.69453,0.540191 -1.90169,0.540191 -0.68351,0 -1.25677,-0.159852 -0.56775,-0.165365 -0.9536,-0.35829 v -1.163064 h 0.0551 q 0.49058,0.369314 1.0914,0.5898 0.60083,0.214974 1.15204,0.214974 0.68351,0 1.06936,-0.220486 0.38585,-0.220486 0.38585,-0.694531 0,-0.363802 -0.20946,-0.551216 -0.20946,-0.187413 -0.80478,-0.319704 -0.22048,-0.04961 -0.57877,-0.115756 -0.35278,-0.06615 -0.64492,-0.143316 -0.81029,-0.214974 -1.15204,-0.628385 -0.33624,-0.418924 -0.33624,-1.02526 0,-0.380339 0.15434,-0.71658 0.15985,-0.336242 0.47955,-0.600825 0.30868,-0.259071 0.78273,-0.407899 0.47956,-0.154341 1.06936,-0.154341 0.55121,0 1.11345,0.137804 0.56775,0.132292 0.94258,0.325217 v 1.107943 h -0.0551 q -0.39688,-0.292144 -0.96463,-0.490582 -0.56775,-0.203949 -1.11345,-0.203949 -0.56776,0 -0.95912,0.220486 -0.39136,0.214974 -0.39136,0.644922 0,0.380338 0.23702,0.573264 0.23151,0.192925 0.74965,0.314192 0.28664,0.06615 0.63941,0.132292 0.35829,0.06615 0.59532,0.121267 0.72209,0.165365 1.11345,0.567752 0.39136,0.407899 0.39136,1.080382 z"
           style="font-size:11.28888893px;stroke-width:0.26458332"
           id="path4598" />
        <path
           d="m -350.4669,83.184387 h -1.41662 l -3.24666,-3.654557 -0.8158,0.87092 v 2.783637 h -1.0914 v -8.207595 h 1.0914 v 4.282942 l 3.98529,-4.282942 h 1.32292 l -3.66558,3.858507 z"
           style="font-size:11.28888893px;stroke-width:0.26458332"
           id="path4600" />
        <path
           d="m -348.20692,75.99654 h -1.16857 v -1.07487 h 1.16857 z m -0.0661,7.187847 h -1.03629 v -6.157074 h 1.03629 z"
           style="font-size:11.28888893px;stroke-width:0.26458332"
           id="path4602" />
        <path
           d="m -343.05856,83.129266 q -0.29215,0.07717 -0.63941,0.126779 -0.34176,0.04961 -0.61185,0.04961 -0.94258,0 -1.43316,-0.507118 -0.49058,-0.507119 -0.49058,-1.626086 v -3.274218 h -0.70005 v -0.87092 h 0.70005 v -1.769402 h 1.03628 v 1.769402 h 2.13872 v 0.87092 h -2.13872 v 2.805685 q 0,0.48507 0.022,0.760678 0.022,0.270095 0.15434,0.507118 0.12127,0.220486 0.33073,0.325217 0.21497,0.09922 0.65043,0.09922 0.25356,0 0.52917,-0.07166 0.27561,-0.07717 0.39688,-0.126779 h 0.0551 z"
           style="font-size:11.28888893px;stroke-width:0.26458332"
           id="path4604" />
      </g>
    </g>
    <g
       id="g5270"
       transform="translate(82.40803,-5.2763213)">
      <path
         inkscape:connector-curvature="0"
         id="path4507"
         d="m -186.30625,67.47721 c -0.0385,-0.0487 -0.25964,-0.573891 -0.49138,-1.167085 -0.23173,-0.593197 -0.8744,-2.221439 -1.42815,-3.618317 -0.55375,-1.396878 -1.51464,-3.823585 -2.13531,-5.39268 -0.62068,-1.569096 -1.69966,-4.29327 -2.39776,-6.05372 -0.6981,-1.760449 -1.63711,-4.132359 -2.08671,-5.27091 -0.4496,-1.138552 -0.85356,-2.069133 -0.8977,-2.067956 -0.0442,10e-4 -0.25764,0.275159 -0.47446,0.608852 -0.21682,0.333693 -0.73494,1.10771 -1.15138,1.72004 -0.81422,1.197213 -2.10675,3.102341 -3.28101,4.836017 -0.40179,0.593195 -1.02785,1.516909 -1.39126,2.052698 -0.36341,0.535789 -1.00971,1.490816 -1.43621,2.12228 -0.90303,1.336977 -1.95515,2.889918 -2.92284,4.314146 -0.74049,1.089847 -1.65965,2.448953 -2.84705,4.209769 -0.41292,0.612331 -0.78663,1.136333 -0.83045,1.164449 -0.0438,0.02812 -2.26445,0.0516 -4.93472,0.05219 l -4.85502,0.001 0.33969,-0.504477 c 0.18682,-0.277461 0.52003,-0.786288 0.74047,-1.130724 0.22044,-0.344434 0.50274,-0.782808 0.62734,-0.97416 0.12459,-0.191355 0.40767,-0.629726 0.62905,-0.974163 0.91362,-1.421449 1.04444,-1.624409 1.39037,-2.157071 0.19883,-0.306166 0.51195,-0.791507 0.69583,-1.078537 0.36455,-0.569087 0.93038,-1.446939 1.39036,-2.157072 0.16112,-0.248759 0.4743,-0.734101 0.69594,-1.078537 0.22165,-0.344435 0.53417,-0.829777 0.6945,-1.078535 0.16033,-0.248759 0.44258,-0.687132 0.62724,-0.974162 0.18464,-0.287029 0.49755,-0.772372 0.69535,-1.078536 0.1978,-0.306166 0.51093,-0.791507 0.69583,-1.078536 0.18491,-0.28703 0.49803,-0.772371 0.69583,-1.078537 0.1978,-0.306164 0.51093,-0.791506 0.69584,-1.078536 0.3341,-0.518638 0.69615,-1.078665 1.45072,-2.244051 0.21682,-0.334868 0.57015,-0.882835 0.78517,-1.217701 0.21502,-0.334869 0.49243,-0.765414 0.61648,-0.956766 0.12404,-0.191355 0.40667,-0.629726 0.62806,-0.974163 0.22138,-0.344436 0.53369,-0.829778 0.69402,-1.078535 0.16033,-0.24876 0.44259,-0.687132 0.62724,-0.974163 0.18464,-0.287028 0.49779,-0.77237 0.69587,-1.078535 0.19809,-0.306167 0.54209,-0.838476 0.76443,-1.182912 0.22236,-0.344434 0.53569,-0.829775 0.6963,-1.078536 0.16061,-0.248757 0.47374,-0.7341 0.69583,-1.078536 0.74428,-1.154264 0.98559,-1.527352 1.38161,-2.136026 0.21656,-0.33286 0.39375,-0.645985 0.39374,-0.695829 0,-0.04984 -0.60323,-1.953714 -1.3405,-4.230817 l -1.34047,-4.140188 -3.26938,-0.0348 -3.26938,-0.03479 -0.018,-3.948835 -0.0179,-3.948837 h 6.18857 6.18858 l 1.04338,2.626759 c 0.57387,1.444716 1.84728,4.646405 2.8298,7.114864 1.89789,4.768172 3.21462,8.082166 4.38205,11.028902 0.39421,0.995036 1.57639,3.969709 2.62707,6.610381 1.05069,2.640674 2.62728,6.609162 3.50354,8.818863 1.04071,2.624376 1.62693,4.017907 1.69044,4.018417 0.0535,4.21e-4 1.56613,-0.455249 3.36145,-1.012616 1.79532,-0.557369 3.29779,-1.002205 3.33883,-0.988526 0.10112,0.03369 2.37331,7.089956 2.30353,7.15351 -0.0304,0.02767 -0.16484,0.08363 -0.29879,0.124335 -0.28198,0.08569 -7.66895,2.426833 -11.44639,3.627692 -1.41602,0.450153 -2.64061,0.839219 -2.72132,0.864593 -0.0869,0.02733 -0.17529,0.01 -0.21677,-0.04242 z"
         style="fill:#fb7e14;fill-opacity:1;stroke-width:0.06958297" />
      <g
         aria-label="AWS Lambda"
         style="font-style:normal;font-weight:normal;font-size:3.17499995px;line-height:6.61458302px;font-family:sans-serif;letter-spacing:0px;word-spacing:0px;fill:#000000;fill-opacity:1;stroke:none;stroke-width:0.26458332"
         id="text5252">
        <path
           d="m -225.48534,83.184387 h -1.16306 l -0.80478,-2.287543 h -3.54982 l -0.80478,2.287543 h -1.10794 l 2.98759,-8.207595 h 1.4552 z m -2.30408,-3.224609 -1.43867,-4.029384 -1.44418,4.029384 z"
           style="font-size:11.28888893px;stroke-width:0.26458332"
           id="path4541" />
        <path
           d="m -214.68703,74.976792 -2.1332,8.207595 h -1.22921 l -1.72531,-6.813021 -1.68672,6.813021 h -1.20165 l -2.17178,-8.207595 h 1.11896 l 1.72531,6.824045 1.69774,-6.824045 h 1.10794 l 1.71428,6.890191 1.71428,-6.890191 z"
           style="font-size:11.28888893px;stroke-width:0.26458332"
           id="path4543" />
        <path
           d="m -207.11884,80.841722 q 0,0.479558 -0.226,0.948091 -0.22049,0.468533 -0.62288,0.79375 -0.44097,0.352777 -1.03077,0.551215 -0.58429,0.198437 -1.41111,0.198437 -0.88746,0 -1.59852,-0.165364 -0.70556,-0.165365 -1.43868,-0.490582 v -1.367014 h 0.0772 q 0.62288,0.518143 1.43868,0.799262 0.81579,0.28112 1.53237,0.28112 1.01424,0 1.57648,-0.380338 0.56775,-0.380339 0.56775,-1.014236 0,-0.545704 -0.27009,-0.804775 -0.26459,-0.259071 -0.81029,-0.402387 -0.41341,-0.110243 -0.89848,-0.181901 -0.47956,-0.07166 -1.01975,-0.181901 -1.09141,-0.23151 -1.62057,-0.788238 -0.52366,-0.562239 -0.52366,-1.46072 0,-1.030773 0.87092,-1.686719 0.87092,-0.661458 2.21038,-0.661458 0.8654,0 1.5875,0.165364 0.72209,0.165365 1.27882,0.407899 v 1.289844 h -0.0772 q -0.46854,-0.396875 -1.23473,-0.655946 -0.76067,-0.264583 -1.55994,-0.264583 -0.87643,0 -1.41111,0.363802 -0.52916,0.363802 -0.52916,0.937066 0,0.51263 0.26458,0.804774 0.26458,0.292144 0.93155,0.446484 0.35278,0.07717 1.00322,0.187414 0.65043,0.110243 1.10243,0.225998 0.91501,0.242535 1.37803,0.733116 0.46303,0.490582 0.46303,1.372526 z"
           style="font-size:11.28888893px;stroke-width:0.26458332"
           id="path4545" />
        <path
           d="m -196.20478,83.184387 h -5.19245 v -8.207595 h 1.09141 v 7.237456 h 4.10104 z"
           style="font-size:11.28888893px;stroke-width:0.26458332"
           id="path4547" />
        <path
           d="m -190.41151,83.184387 h -1.03077 v -0.655946 q -0.13781,0.09371 -0.37483,0.264583 -0.23151,0.165365 -0.452,0.264584 -0.25907,0.126779 -0.59531,0.209461 -0.33624,0.08819 -0.78824,0.08819 -0.83233,0 -1.41111,-0.551215 -0.57877,-0.551216 -0.57877,-1.405599 0,-0.700044 0.29765,-1.129992 0.30317,-0.43546 0.8599,-0.683507 0.56224,-0.248046 1.35047,-0.336241 0.78824,-0.08819 1.69224,-0.132292 v -0.159852 q 0,-0.352778 -0.12678,-0.584288 -0.12127,-0.231511 -0.35278,-0.363802 -0.22049,-0.12678 -0.52917,-0.170877 -0.30868,-0.0441 -0.64492,-0.0441 -0.4079,0 -0.90951,0.110243 -0.5016,0.104731 -1.03628,0.30868 h -0.0551 v -1.052821 q 0.30317,-0.08268 0.87643,-0.181901 0.57326,-0.09922 1.12999,-0.09922 0.65044,0 1.12999,0.110243 0.48507,0.104731 0.83785,0.363803 0.34727,0.253559 0.52917,0.655946 0.1819,0.402387 0.1819,0.997699 z m -1.03077,-1.515842 v -1.714279 q -0.47405,0.02756 -1.11897,0.08268 -0.63941,0.05512 -1.01424,0.159852 -0.44648,0.12678 -0.72209,0.396875 -0.27561,0.264584 -0.27561,0.733117 0,0.529166 0.31971,0.799262 0.3197,0.264583 0.97565,0.264583 0.5457,0 0.9977,-0.209462 0.45199,-0.214974 0.83785,-0.51263 z"
           style="font-size:11.28888893px;stroke-width:0.26458332"
           id="path4549" />
        <path
           d="m -179.42028,83.184387 h -1.03628 v -3.505729 q 0,-0.396875 -0.0386,-0.766189 -0.0331,-0.369314 -0.14883,-0.589801 -0.12678,-0.237022 -0.3638,-0.358289 -0.23702,-0.121268 -0.6835,-0.121268 -0.43546,0 -0.87092,0.220486 -0.43547,0.214974 -0.87093,0.551216 0.0165,0.126779 0.0276,0.297656 0.011,0.165364 0.011,0.330729 v 3.941189 h -1.03628 v -3.505729 q 0,-0.407899 -0.0386,-0.771701 -0.0331,-0.369315 -0.14883,-0.589801 -0.12678,-0.237022 -0.3638,-0.352777 -0.23702,-0.121268 -0.68351,-0.121268 -0.42443,0 -0.85438,0.209462 -0.42444,0.209462 -0.84887,0.534679 v 4.597135 h -1.03629 v -6.157074 h 1.03629 v 0.683506 q 0.48507,-0.402387 0.96462,-0.628385 0.48507,-0.225998 1.03078,-0.225998 0.62838,0 1.06384,0.264583 0.44097,0.264583 0.65595,0.733116 0.62838,-0.529166 1.14653,-0.760677 0.51814,-0.237022 1.10794,-0.237022 1.01424,0 1.49379,0.617361 0.48507,0.611849 0.48507,1.714279 z"
           style="font-size:11.28888893px;stroke-width:0.26458332"
           id="path4551" />
        <path
           d="m -172.00643,80.058997 q 0,0.771701 -0.22049,1.389062 -0.21497,0.617361 -0.58429,1.036285 -0.39136,0.43546 -0.85989,0.655946 -0.46853,0.214974 -1.03077,0.214974 -0.52366,0 -0.91502,-0.12678 -0.39136,-0.121267 -0.7717,-0.330729 l -0.0661,0.286632 h -0.97014 v -8.57691 h 1.03629 v 3.064757 q 0.43546,-0.35829 0.92604,-0.584288 0.49058,-0.23151 1.10243,-0.23151 1.09141,0 1.71979,0.837847 0.6339,0.837847 0.6339,2.364714 z m -1.06936,0.02756 q 0,-1.10243 -0.3638,-1.670182 -0.3638,-0.573264 -1.17409,-0.573264 -0.452,0 -0.91502,0.198438 -0.46302,0.192925 -0.85989,0.501606 v 3.527777 q 0.44097,0.198438 0.75516,0.275608 0.31971,0.07717 0.72209,0.07717 0.8599,0 1.34497,-0.562239 0.49058,-0.567752 0.49058,-1.774914 z"
           style="font-size:11.28888893px;stroke-width:0.26458332"
           id="path4553" />
        <path
           d="m -165.39736,83.184387 h -1.03629 v -0.644922 q -0.44648,0.385851 -0.93155,0.600825 -0.48507,0.214974 -1.05282,0.214974 -1.10243,0 -1.75287,-0.848872 -0.64492,-0.848871 -0.64492,-2.353689 0,-0.782726 0.22049,-1.394574 0.226,-0.611849 0.60633,-1.041797 0.37483,-0.418924 0.87092,-0.63941 0.50161,-0.220486 1.03629,-0.220486 0.48507,0 0.85989,0.104731 0.37483,0.09922 0.78824,0.314192 v -2.667882 h 1.03629 z m -1.03629,-1.515842 v -3.53329 q -0.41892,-0.187413 -0.74965,-0.259071 -0.33073,-0.07166 -0.72209,-0.07166 -0.87092,0 -1.35599,0.606337 -0.48507,0.606337 -0.48507,1.719792 0,1.096918 0.37483,1.670182 0.37482,0.567752 1.20164,0.567752 0.44098,0 0.89297,-0.192926 0.452,-0.198437 0.84336,-0.507118 z"
           style="font-size:11.28888893px;stroke-width:0.26458332"
           id="path4555" />
        <path
           d="m -158.57331,83.184387 h -1.03077 v -0.655946 q -0.13781,0.09371 -0.37483,0.264583 -0.23151,0.165365 -0.452,0.264584 -0.25907,0.126779 -0.59531,0.209461 -0.33624,0.08819 -0.78824,0.08819 -0.83233,0 -1.41111,-0.551215 -0.57878,-0.551216 -0.57878,-1.405599 0,-0.700044 0.29766,-1.129992 0.30317,-0.43546 0.8599,-0.683507 0.56224,-0.248046 1.35047,-0.336241 0.78824,-0.08819 1.69224,-0.132292 v -0.159852 q 0,-0.352778 -0.12678,-0.584288 -0.12127,-0.231511 -0.35278,-0.363802 -0.22049,-0.12678 -0.52917,-0.170877 -0.30868,-0.0441 -0.64492,-0.0441 -0.4079,0 -0.90951,0.110243 -0.5016,0.104731 -1.03628,0.30868 h -0.0551 v -1.052821 q 0.30317,-0.08268 0.87643,-0.181901 0.57326,-0.09922 1.12999,-0.09922 0.65044,0 1.12999,0.110243 0.48507,0.104731 0.83785,0.363803 0.34727,0.253559 0.52917,0.655946 0.1819,0.402387 0.1819,0.997699 z m -1.03077,-1.515842 v -1.714279 q -0.47405,0.02756 -1.11897,0.08268 -0.63941,0.05512 -1.01424,0.159852 -0.44648,0.12678 -0.72209,0.396875 -0.27561,0.264584 -0.27561,0.733117 0,0.529166 0.31971,0.799262 0.3197,0.264583 0.97565,0.264583 0.5457,0 0.9977,-0.209462 0.45199,-0.214974 0.83785,-0.51263 z"
           style="font-size:11.28888893px;stroke-width:0.26458332"
           id="path4557" />
      </g>
    </g>
    <g
       id="g5615"
       transform="translate(-2.0078735)">
      <path
         inkscape:connector-curvature="0"
         id="path4532"
         d="m -308.07139,65.9918 h 95.14795"
         style="fill:none;stroke:#000000;stroke-width:2.36500001;stroke-linecap:butt;stroke-linejoin:miter;stroke-miterlimit:4;stroke-dasharray:none;stroke-opacity:1;marker-start:url(#Arrow2Mstart)" />
      <path
         style="fill:none;stroke:#000000;stroke-width:2.36500001;stroke-linecap:butt;stroke-linejoin:miter;stroke-miterlimit:4;stroke-dasharray:none;stroke-opacity:1;marker-start:url(#marker5016)"
         d="m -216.49894,24.343202 h -95.14795"
         id="path5012"
         inkscape:connector-curvature="0" />
      <g
         id="g5561">
        <g
           aria-label="

JSON"
           style="font-style:normal;font-weight:normal;font-size:11.28888893px;line-height:6.61458302px;font-family:sans-serif;text-align:center;letter-spacing:0px;word-spacing:0px;text-anchor:middle;fill:#000000;fill-opacity:1;stroke:none;stroke-width:0.26458332"
           id="text5502">
          <path
             d="m -344.66502,45.850188 q 0,1.080382 -0.66146,1.664671 -0.65595,0.584288 -1.76389,0.584288 -0.26458,0 -0.70556,-0.04961 -0.44097,-0.0441 -0.73862,-0.110243 v -1.019748 h 0.0606 q 0.226,0.07717 0.55673,0.159852 0.33073,0.08268 0.67799,0.08268 0.50712,0 0.80478,-0.115755 0.30316,-0.115756 0.44648,-0.33073 0.14883,-0.220486 0.18741,-0.540191 0.0441,-0.319704 0.0441,-0.738628 v -4.790061 h -1.73633 v -0.87092 h 2.82774 z"
             style="text-align:center;text-anchor:middle;stroke-width:0.26458332"
             id="path4560" />
          <path
             d="m -336.57318,45.640727 q 0,0.479557 -0.226,0.94809 -0.22049,0.468533 -0.62287,0.79375 -0.44098,0.352778 -1.03078,0.551215 -0.58428,0.198438 -1.41111,0.198438 -0.88745,0 -1.59852,-0.165365 -0.70556,-0.165365 -1.43867,-0.490582 V 46.10926 h 0.0772 q 0.62287,0.518142 1.43867,0.799262 0.8158,0.281119 1.53238,0.281119 1.01423,0 1.57647,-0.380338 0.56775,-0.380339 0.56775,-1.014236 0,-0.545703 -0.27009,-0.804774 -0.26458,-0.259072 -0.81029,-0.402388 -0.41341,-0.110243 -0.89848,-0.181901 -0.47956,-0.07166 -1.01975,-0.181901 -1.0914,-0.23151 -1.62057,-0.788238 -0.52365,-0.562239 -0.52365,-1.46072 0,-1.030773 0.87092,-1.686719 0.87092,-0.661458 2.21037,-0.661458 0.86541,0 1.5875,0.165364 0.72209,0.165365 1.27882,0.4079 v 1.289844 h -0.0772 q -0.46853,-0.396875 -1.23472,-0.655947 -0.76068,-0.264583 -1.55994,-0.264583 -0.87644,0 -1.41111,0.363802 -0.52917,0.363802 -0.52917,0.937066 0,0.51263 0.26458,0.804774 0.26459,0.292144 0.93156,0.446485 0.35277,0.07717 1.00321,0.187413 0.65043,0.110243 1.10243,0.225998 0.91502,0.242535 1.37804,0.733117 0.46302,0.490581 0.46302,1.372526 z"
             style="text-align:center;text-anchor:middle;stroke-width:0.26458332"
             id="path4562" />
          <path
             d="m -328.70183,40.718374 q 0.50161,0.551215 0.76619,1.350478 0.2701,0.799262 0.2701,1.813498 0,1.014236 -0.27561,1.81901 -0.2701,0.799262 -0.76068,1.333941 -0.50712,0.556728 -1.20165,0.837847 -0.68902,0.28112 -1.57647,0.28112 -0.86541,0 -1.57648,-0.286632 -0.70556,-0.286632 -1.20165,-0.832335 -0.49609,-0.545703 -0.76619,-1.339453 -0.26458,-0.79375 -0.26458,-1.813498 0,-1.003212 0.26458,-1.796962 0.26459,-0.799262 0.7717,-1.367014 0.48507,-0.540191 1.20165,-0.826823 0.72209,-0.286632 1.57097,-0.286632 0.88194,0 1.58198,0.292144 0.70556,0.286632 1.19614,0.821311 z m -0.0992,3.163976 q 0,-1.598524 -0.71658,-2.463932 -0.71658,-0.870921 -1.95681,-0.870921 -1.25126,0 -1.96784,0.870921 -0.71107,0.865408 -0.71107,2.463932 0,1.615061 0.72761,2.474956 0.7276,0.854384 1.9513,0.854384 1.2237,0 1.94579,-0.854384 0.7276,-0.859895 0.7276,-2.474956 z"
             style="text-align:center;text-anchor:middle;stroke-width:0.26458332"
             id="path4564" />
          <path
             d="m -319.67292,47.983391 h -1.35048 l -3.89158,-7.342187 v 7.342187 h -1.01975 v -8.207595 h 1.69223 l 3.54983,6.702778 v -6.702778 h 1.01975 z"
             style="text-align:center;text-anchor:middle;stroke-width:0.26458332"
             id="path4566" />
        </g>
        <g
           id="g5549"
           transform="matrix(1.1718434,0,0,1.1718434,-80.061431,31.148821)">
          <path
             sodipodi:nodetypes="ccccccccsccccccccccccccccccccccccccccccccsccccscsccccccccssccccccccccccsccccccccccccccscsccsccccccccccccccccccccccccccsccccccccsccccccccsssccccccscccscccccscccssscscccsssscccssccscccccsscccccccscccccsccccccccccccccccccccccccc"
             inkscape:connector-curvature="0"
             id="path5519"
             d="m -217.48953,4.5836939 c -0.75019,-0.10045 -1.29744,-0.27949 -2.08556,-0.68232 -2.7448,-1.40293 -6.12949,-5.43459 -7.46445,-8.89125 -0.56864,-1.4723897 -1.04692,-3.7119897 -1.23362,-5.7766199 -0.36585,-4.04585 0.44741,-7.92419 2.22284,-10.60041 0.57575,-0.86785 1.75103,-2.08989 2.59287,-2.69602 2.05702,-1.48106 5.09673,-2.30686 7.58026,-2.05932 5.25688,0.52396 8.90039,3.73586 10.14886,8.94664 0.74651,3.11576 0.67148,6.81177 -0.20911,10.3001102 -0.62306,2.4681697 -1.65813,4.4448697 -3.58202,6.84068965 -2.6961,3.35744005 -5.45375,4.95544005 -7.97007,4.61850005 z m 2.31112,-0.84884 c 2.0563,-0.68739 4.4171,-2.86413005 6.52957,-6.0205 1.05566,-1.57732 1.66735,-2.98842 2.14873,-4.9568597 0.2484,-1.01576 0.5177,-2.7373 0.60851,-3.8900502 l 0.051,-0.64742 -1.10129,-0.47556 c -1.43105,-0.61797 -1.39831,-0.56747 -1.3987,-2.15652 l -3e-4,-1.19375 0.27331,-0.27331 c 0.35231,-0.35232 0.58051,-0.35131 1.36459,0.006 0.73254,0.33383 0.71419,0.37438 0.41912,-0.9263 -0.56238,-2.47893 -1.46756,-4.18223 -3.05243,-5.7438 -0.99227,-0.97769 -1.81577,-1.53752 -3.03459,-2.06299 -0.74441,-0.32093 -2.04726,-0.70979 -2.37934,-0.71017 l -0.17934,-2e-4 -0.0216,1.78861 -0.0216,1.78862 h -1.72833 -1.72832 l -0.0217,-1.76612 c -0.0119,-0.97136 -0.0495,-1.79389 -0.0834,-1.82785 -0.0928,-0.0928 -1.59753,0.29466 -2.40215,0.6186 -3.32025,1.3367 -5.45436,4.00099 -6.34329,7.91918 -0.2941,1.29631 -0.31238,1.25617 0.41998,0.92242 0.78408,-0.35731 1.01228,-0.35832 1.36459,-0.006 l 0.27331,0.27332 -3e-4,1.19375 c -3e-4,1.5885 0.0318,1.5388 -1.39455,2.15472 -0.90632,0.39137 -1.097,0.5028 -1.09629,0.64066 0.002,0.40815 0.24937,2.4182402 0.39778,3.2336302 0.53967,2.9651097 1.51574,5.0914897 3.49999,7.62474965 2.15271,2.74833005 4.2333,4.33618005 6.10774,4.66127005 0.81381,0.14114 1.80045,0.0756 2.52942,-0.16813 z m -8.49634,-8.51182 c -0.14369,-0.0625 -0.26126,-0.17005 -0.26126,-0.2391 0,-0.19959 0.74773,-1.8158997 1.16309,-2.5141697 0.39938,-0.6714 0.99177,-1.45829 0.89493,-1.18876 -0.26856,0.74747 -0.73312,2.41995 -0.87688,3.1569397 l -0.1763,0.90377 -0.24116,-0.002 c -0.13264,-0.002 -0.35873,-0.0537 -0.50242,-0.11612 z m 12.89958,-0.62617 c -0.10783,-0.60855 -0.66346,-2.6344597 -0.90879,-3.3135397 -0.0968,-0.26786 0.49051,0.50849 0.88015,1.16352 0.40774,0.68546 1.17672,2.3438697 1.17672,2.5377597 0,0.14819 -0.46133,0.35827 -0.78672,0.35827 -0.22602,0 -0.231,-0.0103 -0.36136,-0.74601 z m -14.4011,-0.58612 c -0.15809,-0.1580897 -0.16379,-0.5963597 -0.0105,-0.8028597 0.26561,-0.35769 0.59875,0.33435 0.36827,0.7650097 -0.10549,0.19711 -0.18966,0.20601 -0.35782,0.0379 z m 16.43162,-0.0379 c -0.23048,-0.4306597 0.10266,-1.1226997 0.36827,-0.7650097 0.15334,0.2065 0.14764,0.64477 -0.0104,0.8028597 -0.16816,0.16816 -0.25234,0.15926 -0.35782,-0.0379 z m -15.67931,-1.3375097 c -0.1295,-0.34016 -6.1e-4,-0.70896 0.24787,-0.70896 0.405,0 0.42142,0.85205 0.0175,0.90993 -0.13426,0.0192 -0.20074,-0.0311 -0.2654,-0.20097 z m 14.7997,0.06 c -0.18983,-0.35469 -0.0138,-0.85402 0.28099,-0.79724 0.20197,0.0389 0.316,0.4434 0.20626,0.73167 -0.0995,0.26125 -0.36351,0.29679 -0.48725,0.0656 z m -16.53249,-1.2554 c -0.18822,-0.28727 -0.0725,-0.78803 0.19084,-0.82543 0.35668,-0.0507 0.43998,0.7685 0.0968,0.95216 -0.12287,0.0658 -0.17722,0.0418 -0.28766,-0.12673 z m 18.32739,-10e-4 c -0.20077,-0.30641 -0.0702,-0.79839 0.21195,-0.79839 0.28211,0 0.41272,0.49198 0.21195,0.79839 -0.0744,0.11355 -0.16978,0.20645 -0.21195,0.20645 -0.0422,0 -0.13755,-0.0929 -0.21195,-0.20645 z m -13.94566,-1.8338202 c -1.23923,-0.44285 -1.7114,-1.40177 -1.27048,-2.58023 0.3378,-0.90285 0.69862,-1.09496 1.76227,-0.93825 0.73884,0.10885 1.37703,0.37022 1.78199,0.72982 0.34742,0.30849 0.34827,0.31059 0.34639,0.86086 -0.002,0.45489 -0.0426,0.62568 -0.23402,0.974 -0.48376,0.88014 -1.47901,1.27796 -2.38615,0.9538 z m 8.68403,0.006 c -0.45787,-0.17149 -0.83251,-0.50334 -1.08323,-0.95949 -0.1898,-0.34532 -0.2325,-0.52054 -0.23403,-0.96032 -0.002,-0.50283 0.0158,-0.55616 0.26846,-0.81707 0.35853,-0.37019 1.03425,-0.66032 1.80451,-0.7748 1.1316,-0.16819 1.47355,0.006 1.81769,0.92576 0.40337,1.0781 0.0626,1.92918 -0.98687,2.46457 -0.40903,0.20867 -1.19324,0.26865 -1.58653,0.12135 z m -3.85835,-3.56078 c -0.33097,-0.39879 -1.63077,-1.11137 -2.70689,-1.48397 l -0.70255,-0.24324 0.60291,0.0488 c 0.92439,0.0748 1.91221,0.20352 2.51542,0.32767 0.41407,0.0852 0.63723,0.0919 0.92386,0.0277 0.66615,-0.14929 2.3769,-0.39512 2.75053,-0.39524 0.35692,-8e-5 0.34915,0.006 -0.58335,0.43569 -1.00274,0.46239 -1.65596,0.81332 -2.20449,1.18435 -0.38914,0.2632 -0.45018,0.27327 -0.59544,0.0983 z m -7.58985,-2.63347 c -0.15453,-0.23584 -0.0508,-0.57396 0.20058,-0.65374 0.23681,-0.0752 0.56338,0.15544 0.56338,0.39783 0,0.42812 -0.53393,0.60697 -0.76396,0.25591 z m 5.63749,0.0682 c -0.19657,-0.19657 -0.16269,-0.49646 0.0736,-0.65127 0.38687,-0.25348 0.77824,0.12207 0.56835,0.54538 -0.11388,0.22967 -0.4609,0.28692 -0.64192,0.10589 z m 3.60703,-0.0682 c -0.15452,-0.23584 -0.0508,-0.57396 0.20058,-0.65374 0.23682,-0.0752 0.56338,0.15544 0.56338,0.39783 0,0.42812 -0.53393,0.60697 -0.76396,0.25591 z m 5.63749,0.0682 c -0.19386,-0.19386 -0.16282,-0.49637 0.0663,-0.64653 0.24039,-0.15751 0.47308,-0.0959 0.58768,0.15565 0.18879,0.41434 -0.33639,0.80852 -0.65403,0.49088 z m -12.17087,-0.64627 c -0.19683,-0.13787 -0.2421,-0.50276 -0.0822,-0.66266 0.0531,-0.053 0.19052,-0.0965 0.30547,-0.0965 0.26894,0 0.40194,0.13681 0.40194,0.41345 0,0.19098 -0.23889,0.47081 -0.40194,0.47081 -0.0246,0 -0.12501,-0.0563 -0.22327,-0.12514 z m 9.64194,-0.003 c -0.13563,-0.095 -0.17679,-0.192 -0.15856,-0.37373 0.0318,-0.31698 0.22486,-0.44163 0.52279,-0.33749 0.30708,0.10733 0.36044,0.52275 0.0914,0.71122 -0.10075,0.0706 -0.20326,0.12831 -0.2278,0.12831 -0.0245,0 -0.12704,-0.0577 -0.22779,-0.12831 z m -12.2671,-1.74696 c -0.30648,-0.2241 -0.10315,-0.77751 0.28567,-0.77751 0.35371,0 0.51833,0.50413 0.2453,0.75122 -0.17774,0.16085 -0.33621,0.1687 -0.53097,0.0263 z m 14.79839,-0.0403 c -0.16767,-0.18527 -0.17055,-0.4471 -0.007,-0.61093 0.26349,-0.26348 0.69765,-0.067 0.69765,0.31581 0,0.3944 -0.43351,0.57957 -0.69093,0.29512 z m -12.25543,-0.43178 c -0.0531,-0.053 -0.0965,-0.19052 -0.0965,-0.30547 0,-0.26566 0.13628,-0.40194 0.40194,-0.40194 0.26566,0 0.40194,0.13628 0.40194,0.40194 0,0.11495 -0.0434,0.25242 -0.0965,0.30547 -0.0531,0.0531 -0.19052,0.0965 -0.30547,0.0965 -0.11495,0 -0.25241,-0.0434 -0.30547,-0.0965 z m 9.64646,0 c -0.12435,-0.12435 -0.12435,-0.48659 0,-0.61094 0.0531,-0.0531 0.19052,-0.0965 0.30547,-0.0965 0.26566,0 0.40194,0.13628 0.40194,0.40194 0,0.26566 -0.13628,0.40194 -0.40194,0.40194 -0.11495,0 -0.25241,-0.0434 -0.30547,-0.0965 z m -9.60225,-2.16081 c -0.29417,-0.17134 -0.0781,-0.79744 0.27523,-0.79744 0.1834,0 0.38797,0.26676 0.38797,0.50593 0,0.31651 -0.35349,0.47189 -0.6632,0.29151 z m 9.64646,0 c -0.29685,-0.1729 -0.0975,-0.79744 0.25455,-0.79744 0.3583,0 0.55962,0.63703 0.25316,0.80105 -0.19263,0.10309 -0.32614,0.10214 -0.50771,-0.004 z m -13.64572,7.15325 c 0,-0.60956 -0.0271,-1.12398 -0.0603,-1.14316 -0.0683,-0.0395 -1.51506,0.60393 -1.64085,0.72972 -0.045,0.045 -0.10197,0.59097 -0.12661,1.21326 l -0.0448,1.13144 0.93627,-0.41149 0.93627,-0.41149 z m -1.09365,0.76975 c -0.15774,-0.24075 -0.11691,-0.87219 0.0684,-1.05749 0.10379,-0.10379 0.13397,-0.1021 0.2501,0.014 0.2318,0.2318 0.14221,1.246 -0.11007,1.246 -0.0416,0 -0.13543,-0.0911 -0.20842,-0.20254 z m 21.08901,0.0329 c -0.0247,-0.62385 -0.0817,-1.1711 -0.12672,-1.2161 -0.12579,-0.12579 -1.57257,-0.76921 -1.64085,-0.72972 -0.0332,0.0192 -0.0603,0.53376 -0.0603,1.14351 v 1.10863 l 0.90436,0.40751 c 0.4974,0.22413 0.91876,0.41042 0.93638,0.41398 0.0176,0.004 0.0118,-0.50396 -0.0129,-1.12781 z m -1.10155,0.0141 c -0.13361,-0.24967 -0.10274,-0.93892 0.0489,-1.09051 0.11612,-0.11613 0.14631,-0.11782 0.2501,-0.014 0.18529,0.1853 0.22613,0.81674 0.0684,1.05749 -0.15916,0.24291 -0.25588,0.2553 -0.36734,0.047 z m -8.60425,-10.29705 v -1.52956 l -1.14552,0.0223 -1.14551,0.0223 -0.0219,1.50725 -0.0219,1.50726 h 1.16738 1.16739 z m -1.4747,0.81985 c -0.17571,-0.19415 -0.16908,-0.51895 0.014,-0.6846 0.46743,-0.42302 1.10232,0.22537 0.65687,0.67083 -0.20063,0.20063 -0.49623,0.2067 -0.67083,0.0138 z"
             style="fill:#000000;stroke-width:0.08038718" />
          <g
             transform="matrix(0.60174685,0,0,0.60174685,-63.351791,16.011648)"
             id="text5527"
             style="font-style:normal;font-weight:normal;font-size:11.28888893px;line-height:6.61458302px;font-family:sans-serif;text-align:center;letter-spacing:0px;word-spacing:0px;text-anchor:middle;fill:#000000;fill-opacity:1;stroke:none;stroke-width:0.26458332"
             aria-label="{:}  JSON">
            <path
               inkscape:connector-curvature="0"
               id="path5529"
               style="text-align:center;text-anchor:middle;stroke-width:0.26458332"
               d="m -258.58508,-25.228001 h -0.82682 q -0.98668,0 -1.60404,-0.551216 -0.61185,-0.545703 -0.61185,-1.581988 v -0.82131 q 0,-0.931554 -0.4575,-1.455209 -0.45751,-0.529166 -1.40009,-0.529166 h -0.28112 v -0.859896 h 0.28112 q 0.94258,0 1.40009,-0.523655 0.4575,-0.529166 0.4575,-1.46072 v -0.821311 q 0,-1.036285 0.61185,-1.581988 0.61736,-0.551215 1.60404,-0.551215 h 0.82682 v 0.760677 h -0.62838 q -0.74966,0 -1.09141,0.347266 -0.33624,0.347265 -0.33624,1.118967 v 0.964626 q 0,0.76619 -0.42444,1.289844 -0.42443,0.518142 -1.1796,0.821311 v 0.132292 q 0.75517,0.303168 1.1796,0.826822 0.42444,0.518143 0.42444,1.284332 v 0.964627 q 0,0.771701 0.33624,1.118967 0.34175,0.347265 1.09141,0.347265 h 0.62838 z" />
            <path
               inkscape:connector-curvature="0"
               id="path5531"
               style="text-align:center;text-anchor:middle;stroke-width:0.26458332"
               d="m -254.3297,-31.974876 h -1.3174 v -1.570964 h 1.3174 z m 0,4.586111 h -1.3174 v -1.570964 h 1.3174 z" />
            <path
               inkscape:connector-curvature="0"
               id="path5533"
               style="text-align:center;text-anchor:middle;stroke-width:0.26458332"
               d="m -246.20478,-30.16689 h -0.28112 q -0.94258,0 -1.40009,0.529166 -0.45751,0.523655 -0.45751,1.455209 v 0.82131 q 0,1.036285 -0.61736,1.581988 -0.61185,0.551216 -1.59852,0.551216 h -0.82683 v -0.760678 h 0.62839 q 0.74965,0 1.08589,-0.347265 0.34176,-0.347266 0.34176,-1.118967 v -0.964627 q 0,-0.766189 0.42443,-1.284332 0.42444,-0.523654 1.1796,-0.826822 v -0.132292 q -0.75516,-0.303169 -1.1796,-0.821311 -0.42443,-0.523654 -0.42443,-1.289844 v -0.964626 q 0,-0.771702 -0.34176,-1.118967 -0.33624,-0.347266 -1.08589,-0.347266 h -0.62839 v -0.760677 h 0.82683 q 0.98667,0 1.59852,0.551215 0.61736,0.545703 0.61736,1.581988 v 0.821311 q 0,0.931554 0.45751,1.46072 0.45751,0.523655 1.40009,0.523655 h 0.28112 z" />
          </g>
        </g>
      </g>
      <g
         transform="translate(147.99752,41.694046)"
         id="g5583">
        <g
           aria-label="

JSON"
           style="font-style:normal;font-weight:normal;font-size:11.28888893px;line-height:6.61458302px;font-family:sans-serif;text-align:center;letter-spacing:0px;word-spacing:0px;text-anchor:middle;fill:#000000;fill-opacity:1;stroke:none;stroke-width:0.26458332"
           id="text5569">
          <path
             d="m -344.66502,45.850188 q 0,1.080382 -0.66146,1.664671 -0.65595,0.584288 -1.76389,0.584288 -0.26458,0 -0.70556,-0.04961 -0.44097,-0.0441 -0.73862,-0.110243 v -1.019748 h 0.0606 q 0.226,0.07717 0.55673,0.159852 0.33073,0.08268 0.67799,0.08268 0.50712,0 0.80478,-0.115755 0.30316,-0.115756 0.44648,-0.33073 0.14883,-0.220486 0.18741,-0.540191 0.0441,-0.319704 0.0441,-0.738628 v -4.790061 h -1.73633 v -0.87092 h 2.82774 z"
             style="text-align:center;text-anchor:middle;stroke-width:0.26458332"
             id="path4569" />
          <path
             d="m -336.57318,45.640727 q 0,0.479557 -0.226,0.94809 -0.22049,0.468533 -0.62287,0.79375 -0.44098,0.352778 -1.03078,0.551215 -0.58428,0.198438 -1.41111,0.198438 -0.88745,0 -1.59852,-0.165365 -0.70556,-0.165365 -1.43867,-0.490582 V 46.10926 h 0.0772 q 0.62287,0.518142 1.43867,0.799262 0.8158,0.281119 1.53238,0.281119 1.01423,0 1.57647,-0.380338 0.56775,-0.380339 0.56775,-1.014236 0,-0.545703 -0.27009,-0.804774 -0.26458,-0.259072 -0.81029,-0.402388 -0.41341,-0.110243 -0.89848,-0.181901 -0.47956,-0.07166 -1.01975,-0.181901 -1.0914,-0.23151 -1.62057,-0.788238 -0.52365,-0.562239 -0.52365,-1.46072 0,-1.030773 0.87092,-1.686719 0.87092,-0.661458 2.21037,-0.661458 0.86541,0 1.5875,0.165364 0.72209,0.165365 1.27882,0.4079 v 1.289844 h -0.0772 q -0.46853,-0.396875 -1.23472,-0.655947 -0.76068,-0.264583 -1.55994,-0.264583 -0.87644,0 -1.41111,0.363802 -0.52917,0.363802 -0.52917,0.937066 0,0.51263 0.26458,0.804774 0.26459,0.292144 0.93156,0.446485 0.35277,0.07717 1.00321,0.187413 0.65043,0.110243 1.10243,0.225998 0.91502,0.242535 1.37804,0.733117 0.46302,0.490581 0.46302,1.372526 z"
             style="text-align:center;text-anchor:middle;stroke-width:0.26458332"
             id="path4571" />
          <path
             d="m -328.70183,40.718374 q 0.50161,0.551215 0.76619,1.350478 0.2701,0.799262 0.2701,1.813498 0,1.014236 -0.27561,1.81901 -0.2701,0.799262 -0.76068,1.333941 -0.50712,0.556728 -1.20165,0.837847 -0.68902,0.28112 -1.57647,0.28112 -0.86541,0 -1.57648,-0.286632 -0.70556,-0.286632 -1.20165,-0.832335 -0.49609,-0.545703 -0.76619,-1.339453 -0.26458,-0.79375 -0.26458,-1.813498 0,-1.003212 0.26458,-1.796962 0.26459,-0.799262 0.7717,-1.367014 0.48507,-0.540191 1.20165,-0.826823 0.72209,-0.286632 1.57097,-0.286632 0.88194,0 1.58198,0.292144 0.70556,0.286632 1.19614,0.821311 z m -0.0992,3.163976 q 0,-1.598524 -0.71658,-2.463932 -0.71658,-0.870921 -1.95681,-0.870921 -1.25126,0 -1.96784,0.870921 -0.71107,0.865408 -0.71107,2.463932 0,1.615061 0.72761,2.474956 0.7276,0.854384 1.9513,0.854384 1.2237,0 1.94579,-0.854384 0.7276,-0.859895 0.7276,-2.474956 z"
             style="text-align:center;text-anchor:middle;stroke-width:0.26458332"
             id="path4573" />
          <path
             d="m -319.67292,47.983391 h -1.35048 l -3.89158,-7.342187 v 7.342187 h -1.01975 v -8.207595 h 1.69223 l 3.54983,6.702778 v -6.702778 h 1.01975 z"
             style="text-align:center;text-anchor:middle;stroke-width:0.26458332"
             id="path4575" />
        </g>
        <g
           transform="matrix(1.1718434,0,0,1.1718434,-80.061431,31.148821)"
           id="g5581">
          <path
             style="fill:#000000;stroke-width:0.08038718"
             d="m -217.48953,4.5836939 c -0.75019,-0.10045 -1.29744,-0.27949 -2.08556,-0.68232 -2.7448,-1.40293 -6.12949,-5.43459 -7.46445,-8.89125 -0.56864,-1.4723897 -1.04692,-3.7119897 -1.23362,-5.7766199 -0.36585,-4.04585 0.44741,-7.92419 2.22284,-10.60041 0.57575,-0.86785 1.75103,-2.08989 2.59287,-2.69602 2.05702,-1.48106 5.09673,-2.30686 7.58026,-2.05932 5.25688,0.52396 8.90039,3.73586 10.14886,8.94664 0.74651,3.11576 0.67148,6.81177 -0.20911,10.3001102 -0.62306,2.4681697 -1.65813,4.4448697 -3.58202,6.84068965 -2.6961,3.35744005 -5.45375,4.95544005 -7.97007,4.61850005 z m 2.31112,-0.84884 c 2.0563,-0.68739 4.4171,-2.86413005 6.52957,-6.0205 1.05566,-1.57732 1.66735,-2.98842 2.14873,-4.9568597 0.2484,-1.01576 0.5177,-2.7373 0.60851,-3.8900502 l 0.051,-0.64742 -1.10129,-0.47556 c -1.43105,-0.61797 -1.39831,-0.56747 -1.3987,-2.15652 l -3e-4,-1.19375 0.27331,-0.27331 c 0.35231,-0.35232 0.58051,-0.35131 1.36459,0.006 0.73254,0.33383 0.71419,0.37438 0.41912,-0.9263 -0.56238,-2.47893 -1.46756,-4.18223 -3.05243,-5.7438 -0.99227,-0.97769 -1.81577,-1.53752 -3.03459,-2.06299 -0.74441,-0.32093 -2.04726,-0.70979 -2.37934,-0.71017 l -0.17934,-2e-4 -0.0216,1.78861 -0.0216,1.78862 h -1.72833 -1.72832 l -0.0217,-1.76612 c -0.0119,-0.97136 -0.0495,-1.79389 -0.0834,-1.82785 -0.0928,-0.0928 -1.59753,0.29466 -2.40215,0.6186 -3.32025,1.3367 -5.45436,4.00099 -6.34329,7.91918 -0.2941,1.29631 -0.31238,1.25617 0.41998,0.92242 0.78408,-0.35731 1.01228,-0.35832 1.36459,-0.006 l 0.27331,0.27332 -3e-4,1.19375 c -3e-4,1.5885 0.0318,1.5388 -1.39455,2.15472 -0.90632,0.39137 -1.097,0.5028 -1.09629,0.64066 0.002,0.40815 0.24937,2.4182402 0.39778,3.2336302 0.53967,2.9651097 1.51574,5.0914897 3.49999,7.62474965 2.15271,2.74833005 4.2333,4.33618005 6.10774,4.66127005 0.81381,0.14114 1.80045,0.0756 2.52942,-0.16813 z m -8.49634,-8.51182 c -0.14369,-0.0625 -0.26126,-0.17005 -0.26126,-0.2391 0,-0.19959 0.74773,-1.8158997 1.16309,-2.5141697 0.39938,-0.6714 0.99177,-1.45829 0.89493,-1.18876 -0.26856,0.74747 -0.73312,2.41995 -0.87688,3.1569397 l -0.1763,0.90377 -0.24116,-0.002 c -0.13264,-0.002 -0.35873,-0.0537 -0.50242,-0.11612 z m 12.89958,-0.62617 c -0.10783,-0.60855 -0.66346,-2.6344597 -0.90879,-3.3135397 -0.0968,-0.26786 0.49051,0.50849 0.88015,1.16352 0.40774,0.68546 1.17672,2.3438697 1.17672,2.5377597 0,0.14819 -0.46133,0.35827 -0.78672,0.35827 -0.22602,0 -0.231,-0.0103 -0.36136,-0.74601 z m -14.4011,-0.58612 c -0.15809,-0.1580897 -0.16379,-0.5963597 -0.0105,-0.8028597 0.26561,-0.35769 0.59875,0.33435 0.36827,0.7650097 -0.10549,0.19711 -0.18966,0.20601 -0.35782,0.0379 z m 16.43162,-0.0379 c -0.23048,-0.4306597 0.10266,-1.1226997 0.36827,-0.7650097 0.15334,0.2065 0.14764,0.64477 -0.0104,0.8028597 -0.16816,0.16816 -0.25234,0.15926 -0.35782,-0.0379 z m -15.67931,-1.3375097 c -0.1295,-0.34016 -6.1e-4,-0.70896 0.24787,-0.70896 0.405,0 0.42142,0.85205 0.0175,0.90993 -0.13426,0.0192 -0.20074,-0.0311 -0.2654,-0.20097 z m 14.7997,0.06 c -0.18983,-0.35469 -0.0138,-0.85402 0.28099,-0.79724 0.20197,0.0389 0.316,0.4434 0.20626,0.73167 -0.0995,0.26125 -0.36351,0.29679 -0.48725,0.0656 z m -16.53249,-1.2554 c -0.18822,-0.28727 -0.0725,-0.78803 0.19084,-0.82543 0.35668,-0.0507 0.43998,0.7685 0.0968,0.95216 -0.12287,0.0658 -0.17722,0.0418 -0.28766,-0.12673 z m 18.32739,-10e-4 c -0.20077,-0.30641 -0.0702,-0.79839 0.21195,-0.79839 0.28211,0 0.41272,0.49198 0.21195,0.79839 -0.0744,0.11355 -0.16978,0.20645 -0.21195,0.20645 -0.0422,0 -0.13755,-0.0929 -0.21195,-0.20645 z m -13.94566,-1.8338202 c -1.23923,-0.44285 -1.7114,-1.40177 -1.27048,-2.58023 0.3378,-0.90285 0.69862,-1.09496 1.76227,-0.93825 0.73884,0.10885 1.37703,0.37022 1.78199,0.72982 0.34742,0.30849 0.34827,0.31059 0.34639,0.86086 -0.002,0.45489 -0.0426,0.62568 -0.23402,0.974 -0.48376,0.88014 -1.47901,1.27796 -2.38615,0.9538 z m 8.68403,0.006 c -0.45787,-0.17149 -0.83251,-0.50334 -1.08323,-0.95949 -0.1898,-0.34532 -0.2325,-0.52054 -0.23403,-0.96032 -0.002,-0.50283 0.0158,-0.55616 0.26846,-0.81707 0.35853,-0.37019 1.03425,-0.66032 1.80451,-0.7748 1.1316,-0.16819 1.47355,0.006 1.81769,0.92576 0.40337,1.0781 0.0626,1.92918 -0.98687,2.46457 -0.40903,0.20867 -1.19324,0.26865 -1.58653,0.12135 z m -3.85835,-3.56078 c -0.33097,-0.39879 -1.63077,-1.11137 -2.70689,-1.48397 l -0.70255,-0.24324 0.60291,0.0488 c 0.92439,0.0748 1.91221,0.20352 2.51542,0.32767 0.41407,0.0852 0.63723,0.0919 0.92386,0.0277 0.66615,-0.14929 2.3769,-0.39512 2.75053,-0.39524 0.35692,-8e-5 0.34915,0.006 -0.58335,0.43569 -1.00274,0.46239 -1.65596,0.81332 -2.20449,1.18435 -0.38914,0.2632 -0.45018,0.27327 -0.59544,0.0983 z m -7.58985,-2.63347 c -0.15453,-0.23584 -0.0508,-0.57396 0.20058,-0.65374 0.23681,-0.0752 0.56338,0.15544 0.56338,0.39783 0,0.42812 -0.53393,0.60697 -0.76396,0.25591 z m 5.63749,0.0682 c -0.19657,-0.19657 -0.16269,-0.49646 0.0736,-0.65127 0.38687,-0.25348 0.77824,0.12207 0.56835,0.54538 -0.11388,0.22967 -0.4609,0.28692 -0.64192,0.10589 z m 3.60703,-0.0682 c -0.15452,-0.23584 -0.0508,-0.57396 0.20058,-0.65374 0.23682,-0.0752 0.56338,0.15544 0.56338,0.39783 0,0.42812 -0.53393,0.60697 -0.76396,0.25591 z m 5.63749,0.0682 c -0.19386,-0.19386 -0.16282,-0.49637 0.0663,-0.64653 0.24039,-0.15751 0.47308,-0.0959 0.58768,0.15565 0.18879,0.41434 -0.33639,0.80852 -0.65403,0.49088 z m -12.17087,-0.64627 c -0.19683,-0.13787 -0.2421,-0.50276 -0.0822,-0.66266 0.0531,-0.053 0.19052,-0.0965 0.30547,-0.0965 0.26894,0 0.40194,0.13681 0.40194,0.41345 0,0.19098 -0.23889,0.47081 -0.40194,0.47081 -0.0246,0 -0.12501,-0.0563 -0.22327,-0.12514 z m 9.64194,-0.003 c -0.13563,-0.095 -0.17679,-0.192 -0.15856,-0.37373 0.0318,-0.31698 0.22486,-0.44163 0.52279,-0.33749 0.30708,0.10733 0.36044,0.52275 0.0914,0.71122 -0.10075,0.0706 -0.20326,0.12831 -0.2278,0.12831 -0.0245,0 -0.12704,-0.0577 -0.22779,-0.12831 z m -12.2671,-1.74696 c -0.30648,-0.2241 -0.10315,-0.77751 0.28567,-0.77751 0.35371,0 0.51833,0.50413 0.2453,0.75122 -0.17774,0.16085 -0.33621,0.1687 -0.53097,0.0263 z m 14.79839,-0.0403 c -0.16767,-0.18527 -0.17055,-0.4471 -0.007,-0.61093 0.26349,-0.26348 0.69765,-0.067 0.69765,0.31581 0,0.3944 -0.43351,0.57957 -0.69093,0.29512 z m -12.25543,-0.43178 c -0.0531,-0.053 -0.0965,-0.19052 -0.0965,-0.30547 0,-0.26566 0.13628,-0.40194 0.40194,-0.40194 0.26566,0 0.40194,0.13628 0.40194,0.40194 0,0.11495 -0.0434,0.25242 -0.0965,0.30547 -0.0531,0.0531 -0.19052,0.0965 -0.30547,0.0965 -0.11495,0 -0.25241,-0.0434 -0.30547,-0.0965 z m 9.64646,0 c -0.12435,-0.12435 -0.12435,-0.48659 0,-0.61094 0.0531,-0.0531 0.19052,-0.0965 0.30547,-0.0965 0.26566,0 0.40194,0.13628 0.40194,0.40194 0,0.26566 -0.13628,0.40194 -0.40194,0.40194 -0.11495,0 -0.25241,-0.0434 -0.30547,-0.0965 z m -9.60225,-2.16081 c -0.29417,-0.17134 -0.0781,-0.79744 0.27523,-0.79744 0.1834,0 0.38797,0.26676 0.38797,0.50593 0,0.31651 -0.35349,0.47189 -0.6632,0.29151 z m 9.64646,0 c -0.29685,-0.1729 -0.0975,-0.79744 0.25455,-0.79744 0.3583,0 0.55962,0.63703 0.25316,0.80105 -0.19263,0.10309 -0.32614,0.10214 -0.50771,-0.004 z m -13.64572,7.15325 c 0,-0.60956 -0.0271,-1.12398 -0.0603,-1.14316 -0.0683,-0.0395 -1.51506,0.60393 -1.64085,0.72972 -0.045,0.045 -0.10197,0.59097 -0.12661,1.21326 l -0.0448,1.13144 0.93627,-0.41149 0.93627,-0.41149 z m -1.09365,0.76975 c -0.15774,-0.24075 -0.11691,-0.87219 0.0684,-1.05749 0.10379,-0.10379 0.13397,-0.1021 0.2501,0.014 0.2318,0.2318 0.14221,1.246 -0.11007,1.246 -0.0416,0 -0.13543,-0.0911 -0.20842,-0.20254 z m 21.08901,0.0329 c -0.0247,-0.62385 -0.0817,-1.1711 -0.12672,-1.2161 -0.12579,-0.12579 -1.57257,-0.76921 -1.64085,-0.72972 -0.0332,0.0192 -0.0603,0.53376 -0.0603,1.14351 v 1.10863 l 0.90436,0.40751 c 0.4974,0.22413 0.91876,0.41042 0.93638,0.41398 0.0176,0.004 0.0118,-0.50396 -0.0129,-1.12781 z m -1.10155,0.0141 c -0.13361,-0.24967 -0.10274,-0.93892 0.0489,-1.09051 0.11612,-0.11613 0.14631,-0.11782 0.2501,-0.014 0.18529,0.1853 0.22613,0.81674 0.0684,1.05749 -0.15916,0.24291 -0.25588,0.2553 -0.36734,0.047 z m -8.60425,-10.29705 v -1.52956 l -1.14552,0.0223 -1.14551,0.0223 -0.0219,1.50725 -0.0219,1.50726 h 1.16738 1.16739 z m -1.4747,0.81985 c -0.17571,-0.19415 -0.16908,-0.51895 0.014,-0.6846 0.46743,-0.42302 1.10232,0.22537 0.65687,0.67083 -0.20063,0.20063 -0.49623,0.2067 -0.67083,0.0138 z"
             id="path5571"
             inkscape:connector-curvature="0"
             sodipodi:nodetypes="ccccccccsccccccccccccccccccccccccccccccccsccccscsccccccccssccccccccccccsccccccccccccccscsccsccccccccccccccccccccccccccsccccccccsccccccccsssccccccscccscccccscccssscscccsssscccssccscccccsscccccccscccccsccccccccccccccccccccccccc" />
          <g
             aria-label="{:}  JSON"
             style="font-style:normal;font-weight:normal;font-size:11.28888893px;line-height:6.61458302px;font-family:sans-serif;text-align:center;letter-spacing:0px;word-spacing:0px;text-anchor:middle;fill:#000000;fill-opacity:1;stroke:none;stroke-width:0.26458332"
             id="g5579"
             transform="matrix(0.60174685,0,0,0.60174685,-63.351791,16.011648)">
            <path
               d="m -258.58508,-25.228001 h -0.82682 q -0.98668,0 -1.60404,-0.551216 -0.61185,-0.545703 -0.61185,-1.581988 v -0.82131 q 0,-0.931554 -0.4575,-1.455209 -0.45751,-0.529166 -1.40009,-0.529166 h -0.28112 v -0.859896 h 0.28112 q 0.94258,0 1.40009,-0.523655 0.4575,-0.529166 0.4575,-1.46072 v -0.821311 q 0,-1.036285 0.61185,-1.581988 0.61736,-0.551215 1.60404,-0.551215 h 0.82682 v 0.760677 h -0.62838 q -0.74966,0 -1.09141,0.347266 -0.33624,0.347265 -0.33624,1.118967 v 0.964626 q 0,0.76619 -0.42444,1.289844 -0.42443,0.518142 -1.1796,0.821311 v 0.132292 q 0.75517,0.303168 1.1796,0.826822 0.42444,0.518143 0.42444,1.284332 v 0.964627 q 0,0.771701 0.33624,1.118967 0.34175,0.347265 1.09141,0.347265 h 0.62838 z"
               style="text-align:center;text-anchor:middle;stroke-width:0.26458332"
               id="path5573"
               inkscape:connector-curvature="0" />
            <path
               d="m -254.3297,-31.974876 h -1.3174 v -1.570964 h 1.3174 z m 0,4.586111 h -1.3174 v -1.570964 h 1.3174 z"
               style="text-align:center;text-anchor:middle;stroke-width:0.26458332"
               id="path5575"
               inkscape:connector-curvature="0" />
            <path
               d="m -246.20478,-30.16689 h -0.28112 q -0.94258,0 -1.40009,0.529166 -0.45751,0.523655 -0.45751,1.455209 v 0.82131 q 0,1.036285 -0.61736,1.581988 -0.61185,0.551216 -1.59852,0.551216 h -0.82683 v -0.760678 h 0.62839 q 0.74965,0 1.08589,-0.347265 0.34176,-0.347266 0.34176,-1.118967 v -0.964627 q 0,-0.766189 0.42443,-1.284332 0.42444,-0.523654 1.1796,-0.826822 v -0.132292 q -0.75516,-0.303169 -1.1796,-0.821311 -0.42443,-0.523654 -0.42443,-1.289844 v -0.964626 q 0,-0.771702 -0.34176,-1.118967 -0.33624,-0.347266 -1.08589,-0.347266 h -0.62839 v -0.760677 h 0.82683 q 0.98667,0 1.59852,0.551215 0.61736,0.545703 0.61736,1.581988 v 0.821311 q 0,0.931554 0.45751,1.46072 0.45751,0.523655 1.40009,0.523655 h 0.28112 z"
               style="text-align:center;text-anchor:middle;stroke-width:0.26458332"
               id="path5577"
               inkscape:connector-curvature="0" />
          </g>
        </g>
      </g>
    </g>
    <g
       aria-label="Intent / Slots"
       style="font-style:normal;font-weight:normal;font-size:11.28888893px;line-height:6.61458302px;font-family:sans-serif;letter-spacing:0px;word-spacing:0px;fill:#000000;fill-opacity:1;stroke:none;stroke-width:0.26458332"
       id="text4535">
      <path
         d="m -299.69394,8.0967503 h -3.24114 V 7.258903 h 1.07487 V 0.72700197 h -1.07487 v -0.83784723 h 3.24114 v 0.83784723 h -1.07487 V 7.258903 h 1.07487 z"
         style="stroke-width:0.26458332"
         id="path4624" />
      <path
         d="m -292.75965,8.0967503 h -1.03628 V 4.5910211 q 0,-0.4244358 -0.0496,-0.79375 -0.0496,-0.3748264 -0.1819,-0.5842882 -0.13781,-0.2315104 -0.39688,-0.3417535 -0.25907,-0.1157552 -0.67248,-0.1157552 -0.42444,0 -0.88746,0.2094618 -0.46302,0.2094618 -0.88745,0.5346788 V 8.0967503 H -297.908 V 1.9396756 h 1.03629 v 0.6835069 q 0.48507,-0.4023871 1.00321,-0.6283854 0.51814,-0.2259983 1.06384,-0.2259983 0.9977,0 1.52136,0.6008247 0.52365,0.6008247 0.52365,1.730816 z"
         style="stroke-width:0.26458332"
         id="path4626" />
      <path
         d="m -287.5672,8.0416287 q -0.29214,0.07717 -0.63941,0.1267795 -0.34175,0.049609 -0.61185,0.049609 -0.94258,0 -1.43316,-0.507118 -0.49058,-0.5071181 -0.49058,-1.6260851 V 2.8105957 h -0.70004 V 1.9396756 h 0.70004 V 0.17027454 h 1.03629 V 1.9396756 h 2.13871 v 0.8709201 h -2.13871 v 2.8056858 q 0,0.4850694 0.022,0.7606771 0.0221,0.2700955 0.15434,0.507118 0.12127,0.2204862 0.33073,0.3252171 0.21498,0.099219 0.65044,0.099219 0.25356,0 0.52916,-0.071658 0.27561,-0.07717 0.39688,-0.1267795 h 0.0551 z"
         style="stroke-width:0.26458332"
         id="path4628" />
      <path
         d="m -281.15657,5.1256999 h -4.5365 q 0,0.5677517 0.17088,0.9921875 0.17088,0.4189236 0.46853,0.6890191 0.28663,0.2645833 0.678,0.396875 0.39687,0.1322917 0.87092,0.1322917 0.62838,0 1.26228,-0.2480469 0.63941,-0.253559 0.9095,-0.4960938 h 0.0551 v 1.1299914 q -0.52366,0.2204861 -1.06936,0.3693142 -0.5457,0.1488281 -1.14653,0.1488281 -1.53238,0 -2.39227,-0.8268229 -0.8599,-0.8323351 -0.8599,-2.3592014 0,-1.5103299 0.82131,-2.3977865 0.82682,-0.8874566 2.17179,-0.8874566 1.24575,0 1.91823,0.7276042 0.67799,0.7276042 0.67799,2.0670573 z m -1.00872,-0.79375 q -0.006,-0.8157986 -0.41341,-1.262283 -0.40239,-0.4464844 -1.22921,-0.4464844 -0.83234,0 -1.32843,0.4905816 -0.49058,0.4905816 -0.55673,1.2181858 z"
         style="stroke-width:0.26458332"
         id="path4630" />
      <path
         d="m -274.43725,8.0967503 h -1.03629 V 4.5910211 q 0,-0.4244358 -0.0496,-0.79375 -0.0496,-0.3748264 -0.1819,-0.5842882 -0.1378,-0.2315104 -0.39687,-0.3417535 -0.25907,-0.1157552 -0.67248,-0.1157552 -0.42444,0 -0.88746,0.2094618 -0.46302,0.2094618 -0.88746,0.5346788 v 4.5971355 h -1.03628 V 1.9396756 h 1.03628 v 0.6835069 q 0.48507,-0.4023871 1.00321,-0.6283854 0.51815,-0.2259983 1.06385,-0.2259983 0.9977,0 1.52135,0.6008247 0.52366,0.6008247 0.52366,1.730816 z"
         style="stroke-width:0.26458332"
         id="path4632" />
      <path
         d="m -269.2448,8.0416287 q -0.29215,0.07717 -0.63941,0.1267795 -0.34176,0.049609 -0.61185,0.049609 -0.94258,0 -1.43316,-0.507118 -0.49058,-0.5071181 -0.49058,-1.6260851 V 2.8105957 h -0.70005 V 1.9396756 h 0.70005 V 0.17027454 h 1.03628 V 1.9396756 h 2.13872 v 0.8709201 h -2.13872 v 2.8056858 q 0,0.4850694 0.022,0.7606771 0.022,0.2700955 0.15434,0.507118 0.12127,0.2204862 0.33073,0.3252171 0.21497,0.099219 0.65043,0.099219 0.25356,0 0.52917,-0.071658 0.27561,-0.07717 0.39687,-0.1267795 h 0.0551 z"
         style="stroke-width:0.26458332"
         id="path4634" />
      <path
         d="m -260.29858,-0.4801595 -3.95221,10.2526042 h -0.95361 l 3.93568,-10.2526042 z"
         style="stroke-width:0.26458332"
         id="path4636" />
      <path
         d="m -248.86638,5.7540853 q 0,0.4795573 -0.226,0.9480903 -0.22048,0.468533 -0.62287,0.79375 -0.44097,0.3527778 -1.03077,0.5512153 -0.58429,0.1984375 -1.41111,0.1984375 -0.88746,0 -1.59853,-0.1653646 -0.70555,-0.1653646 -1.43867,-0.4905816 V 6.2226183 h 0.0772 q 0.62288,0.5181424 1.43867,0.7992622 0.8158,0.2811198 1.53238,0.2811198 1.01424,0 1.57648,-0.3803386 0.56775,-0.3803385 0.56775,-1.0142361 0,-0.5457031 -0.2701,-0.8047743 -0.26458,-0.2590712 -0.81028,-0.4023872 -0.41341,-0.110243 -0.89848,-0.181901 -0.47956,-0.071658 -1.01975,-0.181901 -1.09141,-0.2315105 -1.62057,-0.7882379 -0.52366,-0.5622396 -0.52366,-1.4607205 0,-1.0307726 0.87092,-1.68671875 0.87092,-0.66145833 2.21037,-0.66145833 0.86541,0 1.5875,0.16536458 0.7221,0.16536458 1.27882,0.40789931 V 1.6034343 h -0.0772 q -0.46853,-0.396875 -1.23472,-0.65594622 -0.76068,-0.26458333 -1.55994,-0.26458333 -0.87643,0 -1.41111,0.36380205 -0.52917,0.3638021 -0.52917,0.937066 0,0.5126302 0.26459,0.8047743 0.26458,0.2921441 0.93155,0.4464844 0.35278,0.07717 1.00321,0.1874132 0.65044,0.110243 1.10243,0.2259983 0.91502,0.2425347 1.37804,0.7331163 0.46302,0.4905816 0.46302,1.372526 z"
         style="stroke-width:0.26458332"
         id="path4638" />
      <path
         d="m -246.14889,8.0967503 h -1.03628 v -8.5769098 h 1.03628 z"
         style="stroke-width:0.26458332"
         id="path4640" />
      <path
         d="m -238.88387,5.020969 q 0,1.5048177 -0.7717,2.3757379 -0.7717,0.8709201 -2.06706,0.8709201 -1.30638,0 -2.07808,-0.8709201 -0.76619,-0.8709202 -0.76619,-2.3757379 0,-1.5048177 0.76619,-2.3757379 0.7717,-0.8764323 2.07808,-0.8764323 1.29536,0 2.06706,0.8764323 0.7717,0.8709202 0.7717,2.3757379 z m -1.06935,0 q 0,-1.1961372 -0.46854,-1.7749132 -0.46853,-0.5842882 -1.30087,-0.5842882 -0.84335,0 -1.31189,0.5842882 -0.46302,0.578776 -0.46302,1.7749132 0,1.1575521 0.46853,1.7583767 0.46854,0.5953125 1.30638,0.5953125 0.82683,0 1.29536,-0.5898003 0.47405,-0.5953125 0.47405,-1.7638889 z"
         style="stroke-width:0.26458332"
         id="path4642" />
      <path
         d="m -234.07727,8.0416287 q -0.29214,0.07717 -0.63941,0.1267795 -0.34175,0.049609 -0.61185,0.049609 -0.94258,0 -1.43316,-0.507118 -0.49058,-0.5071181 -0.49058,-1.6260851 V 2.8105957 h -0.70004 V 1.9396756 h 0.70004 V 0.17027454 h 1.03628 V 1.9396756 h 2.13872 v 0.8709201 h -2.13872 v 2.8056858 q 0,0.4850694 0.0221,0.7606771 0.0221,0.2700955 0.15434,0.507118 0.12127,0.2204862 0.33073,0.3252171 0.21498,0.099219 0.65044,0.099219 0.25356,0 0.52916,-0.071658 0.27561,-0.07717 0.39688,-0.1267795 h 0.0551 z"
         style="stroke-width:0.26458332"
         id="path4644" />
      <path
         d="m -228.4218,6.3218371 q 0,0.8433593 -0.70005,1.3835503 -0.69453,0.540191 -1.90169,0.540191 -0.6835,0 -1.25677,-0.1598524 -0.56775,-0.1653646 -0.9536,-0.35829 V 6.5643718 h 0.0551 q 0.49058,0.3693142 1.09141,0.5898003 0.60082,0.214974 1.15204,0.214974 0.6835,0 1.06935,-0.2204861 0.38585,-0.2204861 0.38585,-0.6945313 0,-0.3638021 -0.20946,-0.5512153 -0.20946,-0.1874131 -0.80477,-0.3197048 -0.22049,-0.049609 -0.57878,-0.1157552 -0.35278,-0.066146 -0.64492,-0.143316 -0.81029,-0.214974 -1.15204,-0.6283854 -0.33624,-0.4189236 -0.33624,-1.0252604 0,-0.3803386 0.15434,-0.7165799 0.15985,-0.3362413 0.47956,-0.6008247 0.30868,-0.2590711 0.78272,-0.4078993 0.47956,-0.1543402 1.06936,-0.1543402 0.55122,0 1.11346,0.1378038 0.56775,0.1322916 0.94257,0.325217 V 3.361811 h -0.0551 q -0.39687,-0.2921441 -0.96462,-0.4905816 -0.56776,-0.2039496 -1.11346,-0.2039496 -0.56775,0 -0.95911,0.2204861 -0.39137,0.2149739 -0.39137,0.6449218 0,0.3803386 0.23703,0.5732639 0.23151,0.1929254 0.74965,0.3141927 0.28663,0.066146 0.63941,0.1322917 0.35829,0.066146 0.59531,0.1212674 0.72209,0.1653646 1.11346,0.5677517 0.39136,0.4078993 0.39136,1.080382 z"
         style="stroke-width:0.26458332"
         id="path4646" />
    </g>
    <g
       aria-label="Response"
       style="font-style:normal;font-weight:normal;font-size:11.28888893px;line-height:6.61458302px;font-family:sans-serif;letter-spacing:0px;word-spacing:0px;fill:#000000;fill-opacity:1;stroke:none;stroke-width:0.26458332"
       id="text4539">
      <path
         d="m -285.11429,90.950302 h -1.41662 l -2.74505,-3.263194 h -1.53789 v 3.263194 h -1.09141 v -8.207595 h 2.29857 q 0.74414,0 1.24023,0.09922 0.4961,0.09371 0.89297,0.341754 0.44649,0.28112 0.69453,0.711068 0.25356,0.424435 0.25356,1.080381 0,0.887457 -0.44648,1.488282 -0.44649,0.595312 -1.22921,0.898481 z m -2.55212,-5.898003 q 0,-0.352778 -0.12678,-0.622874 -0.12127,-0.275607 -0.4079,-0.46302 -0.23703,-0.159853 -0.56224,-0.220487 -0.32522,-0.06615 -0.76619,-0.06615 h -1.28433 v 3.097829 h 1.10243 q 0.51814,0 0.90399,-0.08819 0.38585,-0.09371 0.65595,-0.341753 0.24804,-0.231511 0.3638,-0.529167 0.12127,-0.303169 0.12127,-0.766189 z"
         style="stroke-width:0.26458332"
         id="path4607" />
      <path
         d="m -278.98477,87.979252 h -4.53651 q 0,0.567752 0.17088,0.992187 0.17088,0.418924 0.46853,0.689019 0.28664,0.264584 0.678,0.396875 0.39687,0.132292 0.87092,0.132292 0.62838,0 1.26228,-0.248047 0.63941,-0.253559 0.90951,-0.496094 h 0.0551 v 1.129992 q -0.52366,0.220486 -1.06936,0.369314 -0.5457,0.148828 -1.14653,0.148828 -1.53237,0 -2.39227,-0.826823 -0.8599,-0.832335 -0.8599,-2.359201 0,-1.51033 0.82131,-2.397787 0.82683,-0.887456 2.17179,-0.887456 1.24575,0 1.91823,0.727604 0.678,0.727604 0.678,2.067057 z m -1.00873,-0.79375 q -0.006,-0.815799 -0.41341,-1.262283 -0.40239,-0.446485 -1.22921,-0.446485 -0.83233,0 -1.32843,0.490582 -0.49058,0.490582 -0.55673,1.218186 z"
         style="stroke-width:0.26458332"
         id="path4609" />
      <path
         d="m -273.01511,89.175389 q 0,0.843359 -0.70005,1.38355 -0.69453,0.540191 -1.90169,0.540191 -0.68351,0 -1.25677,-0.159852 -0.56775,-0.165365 -0.9536,-0.35829 v -1.163064 h 0.0551 q 0.49058,0.369314 1.09141,0.5898 0.60082,0.214974 1.15204,0.214974 0.6835,0 1.06935,-0.220486 0.38585,-0.220486 0.38585,-0.694531 0,-0.363802 -0.20946,-0.551216 -0.20946,-0.187413 -0.80477,-0.319705 -0.22049,-0.04961 -0.57878,-0.115755 -0.35278,-0.06615 -0.64492,-0.143316 -0.81029,-0.214974 -1.15204,-0.628385 -0.33624,-0.418924 -0.33624,-1.025261 0,-0.380338 0.15434,-0.716579 0.15985,-0.336242 0.47956,-0.600825 0.30868,-0.259071 0.78272,-0.407899 0.47956,-0.154341 1.06936,-0.154341 0.55122,0 1.11345,0.137804 0.56776,0.132292 0.94258,0.325217 v 1.107943 h -0.0551 q -0.39687,-0.292144 -0.96463,-0.490582 -0.56775,-0.203949 -1.11345,-0.203949 -0.56775,0 -0.95911,0.220486 -0.39137,0.214974 -0.39137,0.644922 0,0.380338 0.23703,0.573263 0.23151,0.192926 0.74965,0.314193 0.28663,0.06615 0.63941,0.132292 0.35829,0.06615 0.59531,0.121267 0.72209,0.165365 1.11345,0.567752 0.39137,0.407899 0.39137,1.080382 z"
         style="stroke-width:0.26458332"
         id="path4611" />
      <path
         d="m -266.10838,87.797351 q 0,0.749653 -0.21498,1.372526 -0.21497,0.617361 -0.60634,1.047309 -0.3638,0.407899 -0.85989,0.633897 -0.49058,0.220486 -1.0418,0.220486 -0.47956,0 -0.87092,-0.10473 -0.38585,-0.104731 -0.78824,-0.325217 v 2.579687 h -1.03628 v -8.428082 h 1.03628 v 0.644922 q 0.41342,-0.347265 0.92605,-0.578776 0.51814,-0.237022 1.10243,-0.237022 1.11345,0 1.73081,0.843359 0.62288,0.837847 0.62288,2.331641 z m -1.06936,0.02756 q 0,-1.113454 -0.38034,-1.66467 -0.38034,-0.551215 -1.16858,-0.551215 -0.44648,0 -0.89848,0.192925 -0.45199,0.192926 -0.86541,0.507118 v 3.489193 q 0.44098,0.198438 0.75517,0.270096 0.3197,0.07166 0.72209,0.07166 0.86541,0 1.35048,-0.584289 0.48507,-0.584288 0.48507,-1.730816 z"
         style="stroke-width:0.26458332"
         id="path4613" />
      <path
         d="m -259.24576,87.874521 q 0,1.504818 -0.7717,2.375738 -0.7717,0.87092 -2.06705,0.87092 -1.30638,0 -2.07809,-0.87092 -0.76618,-0.87092 -0.76618,-2.375738 0,-1.504818 0.76618,-2.375738 0.77171,-0.876432 2.07809,-0.876432 1.29535,0 2.06705,0.876432 0.7717,0.87092 0.7717,2.375738 z m -1.06935,0 q 0,-1.196137 -0.46854,-1.774913 -0.46853,-0.584289 -1.30086,-0.584289 -0.84336,0 -1.3119,0.584289 -0.46302,0.578776 -0.46302,1.774913 0,1.157552 0.46854,1.758377 0.46853,0.595312 1.30638,0.595312 0.82682,0 1.29535,-0.5898 0.47405,-0.595313 0.47405,-1.763889 z"
         style="stroke-width:0.26458332"
         id="path4615" />
      <path
         d="m -252.48785,90.950302 h -1.03629 v -3.505729 q 0,-0.424436 -0.0496,-0.79375 -0.0496,-0.374826 -0.1819,-0.584288 -0.1378,-0.231511 -0.39687,-0.341754 -0.25907,-0.115755 -0.67249,-0.115755 -0.42443,0 -0.88745,0.209462 -0.46302,0.209462 -0.88746,0.534679 v 4.597135 h -1.03628 v -6.157075 h 1.03628 v 0.683507 q 0.48507,-0.402387 1.00321,-0.628385 0.51814,-0.225998 1.06385,-0.225998 0.9977,0 1.52135,0.600824 0.52366,0.600825 0.52366,1.730816 z"
         style="stroke-width:0.26458332"
         id="path4617" />
      <path
         d="m -246.09376,89.175389 q 0,0.843359 -0.70004,1.38355 -0.69453,0.540191 -1.90169,0.540191 -0.68351,0 -1.25677,-0.159852 -0.56776,-0.165365 -0.95361,-0.35829 v -1.163064 h 0.0551 q 0.49058,0.369314 1.0914,0.5898 0.60083,0.214974 1.15204,0.214974 0.68351,0 1.06936,-0.220486 0.38585,-0.220486 0.38585,-0.694531 0,-0.363802 -0.20946,-0.551216 -0.20946,-0.187413 -0.80478,-0.319705 -0.22048,-0.04961 -0.57877,-0.115755 -0.35278,-0.06615 -0.64492,-0.143316 -0.81029,-0.214974 -1.15204,-0.628385 -0.33625,-0.418924 -0.33625,-1.025261 0,-0.380338 0.15434,-0.716579 0.15986,-0.336242 0.47956,-0.600825 0.30868,-0.259071 0.78273,-0.407899 0.47955,-0.154341 1.06936,-0.154341 0.55121,0 1.11345,0.137804 0.56775,0.132292 0.94258,0.325217 v 1.107943 h -0.0551 q -0.39688,-0.292144 -0.96463,-0.490582 -0.56775,-0.203949 -1.11345,-0.203949 -0.56776,0 -0.95912,0.220486 -0.39136,0.214974 -0.39136,0.644922 0,0.380338 0.23702,0.573263 0.23151,0.192926 0.74965,0.314193 0.28663,0.06615 0.63941,0.132292 0.35829,0.06615 0.59532,0.121267 0.72209,0.165365 1.11345,0.567752 0.39136,0.407899 0.39136,1.080382 z"
         style="stroke-width:0.26458332"
         id="path4619" />
      <path
         d="m -239.45161,87.979252 h -4.53651 q 0,0.567752 0.17088,0.992187 0.17088,0.418924 0.46853,0.689019 0.28664,0.264584 0.678,0.396875 0.39687,0.132292 0.87092,0.132292 0.62838,0 1.26228,-0.248047 0.63941,-0.253559 0.90951,-0.496094 h 0.0551 v 1.129992 q -0.52366,0.220486 -1.06936,0.369314 -0.5457,0.148828 -1.14653,0.148828 -1.53238,0 -2.39227,-0.826823 -0.8599,-0.832335 -0.8599,-2.359201 0,-1.51033 0.82131,-2.397787 0.82683,-0.887456 2.17179,-0.887456 1.24575,0 1.91823,0.727604 0.678,0.727604 0.678,2.067057 z m -1.00873,-0.79375 q -0.006,-0.815799 -0.41341,-1.262283 -0.40239,-0.446485 -1.22921,-0.446485 -0.83233,0 -1.32843,0.490582 -0.49058,0.490582 -0.55673,1.218186 z"
         style="stroke-width:0.26458332"
         id="path4621" />
    </g>
  </g>
</svg>
